inDegrees=yes
name=ik_OwnShooting_orientations2.mot
DataType=double
version=3
OpenSimVersion=4.3-2021-08-27-4bc7ad9
endheader
time	pelvis_tilt	pelvis_list	pelvis_rotation	pelvis_tx	pelvis_ty	pelvis_tz	hip_flexion_r	hip_adduction_r	hip_rotation_r	knee_angle_r	knee_angle_r_beta	ankle_angle_r	subtalar_angle_r	mtp_angle_r	hip_flexion_l	hip_adduction_l	hip_rotation_l	knee_angle_l	knee_angle_l_beta	ankle_angle_l	subtalar_angle_l	mtp_angle_l	lumbar_extension	lumbar_bending	lumbar_rotation	arm_flex_r	arm_add_r	arm_rot_r	elbow_flex_r	pro_sup_r	wrist_flex_r	wrist_dev_r	arm_flex_l	arm_add_l	arm_rot_l	elbow_flex_l	pro_sup_l	wrist_flex_l	wrist_dev_l
0.01	-0.6470879664441155	6.159031860325269	-57.67435012471928	0	0.9399999999999999	0	7.308647699900395	-3.649702994307614	0	15.73993736922471	0.2747137311506657	-2.193562998887133	0	0	7.308647699900395	-3.649702994307614	0	15.73993736922471	0.2747137311506657	-2.193562998887133	0	0	-9.095638905051548	-21.01684291328415	-6.68819275611922	20.79584289808092	-119.9891169845917	81.71880949202053	149.994004781119	21.11240497143603	0	0	0	-0.9414012572115974	0	22.0822677967223	21.11240497143603	0	0
0.02	-0.648709546629827	6.289915773978544	-57.65518020702198	0	0.9399999999999999	0	7.330994657863298	-3.659834155869201	0	15.77351921417466	0.2752998449139364	-2.199296615708469	0	0	7.330994657863298	-3.659834155869201	0	15.77351921417466	0.2752998449139364	-2.199296615708469	0	0	-9.270707876594912	-22.28133204297418	-7.43373557339999	21.39443573452454	-119.9903637896176	81.38663428731788	149.9931942515921	21.1532119304167	0	0	0	-0.9446468502413405	0	22.12885133151899	21.1532119304167	0	0
0.03	-0.6656601991477055	6.403232544086715	-57.66915919188633	0	0.9399999999999999	0	7.726249879162061	-3.809912428970791	0	16.37794953986593	0.2858491441961507	-2.279672136798097	0	0	7.726249879162061	-3.809912428970791	0	16.37794953986593	0.2858491441961507	-2.279672136798097	0	0	-10.11958886084679	-27.50316667091786	-9.933925274914843	21.60917989849743	-119.9934013313289	73.65465920425025	149.989733045662	21.69601348910101	0	0	0	-1.021878726870656	0	22.79207678573804	21.69601348910101	0	0
0.04	-0.658160766304798	6.490229711975311	-57.66990331505221	0	0.9399999999999999	0	9.714704333038721	-4.55259255489025	0	18.9700745586563	0.3310902603973626	-2.66833742726429	0	0	9.714704333038721	-4.55259255489025	0	18.9700745586563	0.3310902603973626	-2.66833742726429	0	0	-10.81398162627381	-30.82054557627808	-11.55281404009855	21.40278764715227	-119.9944944705655	66.01892344707908	149.9881633244927	24.30250794918943	0	0	0	-1.391961830697749	0	26.04780071880976	24.30250794918943	0	0
0.05	-0.6393834109769612	6.528046262915535	-57.64616584563294	0	0.9399999999999999	0	10.57590418790329	-4.865727681889284	0	20.21740201080284	0.3528602312878317	-2.832507358911634	0	0	10.57590418790329	-4.865727681889284	0	20.21740201080284	0.3528602312878317	-2.832507358911634	0	0	-13.79117602502314	-31.37492173042965	-26.1687148586969	44.80574250608557	-119.9960299179934	55.01289228643967	149.9795004291881	25.40145439303104	0	0	0	-1.566104609416477	0	27.43226894423105	25.40145439303104	0	0
0.06	-0.62810028178234	6.562959021193915	-57.64631362692036	0	0.9399999999999999	0	12.82432076303171	-5.643228054497007	0	23.27795389469377	0.4062769385898436	-3.228213976051268	0	0	12.82432076303171	-5.643228054497007	0	23.27795389469377	0.4062769385898436	-3.228213976051268	0	0	-9.985755813237178	-30.43925926248881	-7.508764242684833	11.72790777163	-119.9940540615248	70.26465340503638	149.9824161802844	28.0993264194534	0	0	0	-2.02261257775109	0	30.96758540429396	28.0993264194534	0	0
0.07000000000000001	-0.6219729680925545	6.559998773947428	-57.61115697493244	0	0.9399999999999999	0	17.83701965695248	-7.250872678114059	0	29.752623043278	0.5192812332099364	-4.017741889240067	0	0	17.83701965695248	-7.250872678114059	0	29.752623043278	0.5192812332099364	-4.017741889240067	0	0	-9.990522608732322	-24.66631047340842	-12.1366138322832	4.11411506350014	-119.991766479073	89.96943505338642	0.03011423409385769	33.63823666957683	0	0	0	-3.089869049660333	0	38.57740090779583	33.63823666957683	0	0
0.08	-0.6455649828003993	6.582809878464086	-57.59193626087472	0	0.9399999999999999	0	18.19390732299049	-7.338524440076534	0	30.17285157109264	0.5266156046311105	-4.055958924090644	0	0	18.19390732299049	-7.338524440076534	0	30.17285157109264	0.5266156046311105	-4.055958924090644	0	0	-10.36911132731903	-26.34960810148394	-13.46555575063121	-18.54587721688708	-119.989739403951	89.98347999049889	0.00737359953470851	33.95065308311866	0	0	0	-3.176033289440295	0	39.08897158919217	33.95065308311866	0	0
